<?xml version='1.0' encoding='UTF-8'?>
<svg width="57mm" height="57mm" version="1.1" viewBox="0 0 57 57" xmlns="http://www.w3.org/2000/svg"><path d="M4,4H5V5H4zM5,4H6V5H5zM6,4H7V5H6zM7,4H8V5H7zM8,4H9V5H8zM9,4H10V5H9zM10,4H11V5H10zM16,4H17V5H16zM18,4H19V5H18zM20,4H21V5H20zM21,4H22V5H21zM23,4H24V5H23zM27,4H28V5H27zM28,4H29V5H28zM29,4H30V5H29zM30,4H31V5H30zM31,4H32V5H31zM32,4H33V5H32zM33,4H34V5H33zM36,4H37V5H36zM38,4H39V5H38zM41,4H42V5H41zM44,4H45V5H44zM46,4H47V5H46zM47,4H48V5H47zM48,4H49V5H48zM49,4H50V5H49zM50,4H51V5H50zM51,4H52V5H51zM52,4H53V5H52zM4,5H5V6H4zM10,5H11V6H10zM14,5H15V6H14zM15,5H16V6H15zM17,5H18V6H17zM20,5H21V6H20zM21,5H22V6H21zM24,5H25V6H24zM25,5H26V6H25zM26,5H27V6H26zM27,5H28V6H27zM32,5H33V6H32zM34,5H35V6H34zM35,5H36V6H35zM36,5H37V6H36zM37,5H38V6H37zM39,5H40V6H39zM41,5H42V6H41zM42,5H43V6H42zM43,5H44V6H43zM44,5H45V6H44zM46,5H47V6H46zM52,5H53V6H52zM4,6H5V7H4zM6,6H7V7H6zM7,6H8V7H7zM8,6H9V7H8zM10,6H11V7H10zM12,6H13V7H12zM14,6H15V7H14zM19,6H20V7H19zM21,6H22V7H21zM22,6H23V7H22zM23,6H24V7H23zM26,6H27V7H26zM28,6H29V7H28zM32,6H33V7H32zM34,6H35V7H34zM35,6H36V7H35zM36,6H37V7H36zM37,6H38V7H37zM39,6H40V7H39zM43,6H44V7H43zM44,6H45V7H44zM46,6H47V7H46zM48,6H49V7H48zM49,6H50V7H49zM50,6H51V7H50zM52,6H53V7H52zM4,7H5V8H4zM6,7H7V8H6zM7,7H8V8H7zM8,7H9V8H8zM10,7H11V8H10zM12,7H13V8H12zM13,7H14V8H13zM15,7H16V8H15zM16,7H17V8H16zM26,7H27V8H26zM27,7H28V8H27zM29,7H30V8H29zM30,7H31V8H30zM31,7H32V8H31zM34,7H35V8H34zM40,7H41V8H40zM41,7H42V8H41zM43,7H44V8H43zM46,7H47V8H46zM48,7H49V8H48zM49,7H50V8H49zM50,7H51V8H50zM52,7H53V8H52zM4,8H5V9H4zM6,8H7V9H6zM7,8H8V9H7zM8,8H9V9H8zM10,8H11V9H10zM12,8H13V9H12zM13,8H14V9H13zM14,8H15V9H14zM16,8H17V9H16zM18,8H19V9H18zM22,8H23V9H22zM23,8H24V9H23zM24,8H25V9H24zM25,8H26V9H25zM26,8H27V9H26zM27,8H28V9H27zM28,8H29V9H28zM29,8H30V9H29zM30,8H31V9H30zM31,8H32V9H31zM33,8H34V9H33zM34,8H35V9H34zM36,8H37V9H36zM41,8H42V9H41zM46,8H47V9H46zM48,8H49V9H48zM49,8H50V9H49zM50,8H51V9H50zM52,8H53V9H52zM4,9H5V10H4zM10,9H11V10H10zM12,9H13V10H12zM13,9H14V10H13zM14,9H15V10H14zM19,9H20V10H19zM20,9H21V10H20zM24,9H25V10H24zM26,9H27V10H26zM30,9H31V10H30zM34,9H35V10H34zM35,9H36V10H35zM40,9H41V10H40zM41,9H42V10H41zM42,9H43V10H42zM46,9H47V10H46zM52,9H53V10H52zM4,10H5V11H4zM5,10H6V11H5zM6,10H7V11H6zM7,10H8V11H7zM8,10H9V11H8zM9,10H10V11H9zM10,10H11V11H10zM12,10H13V11H12zM14,10H15V11H14zM16,10H17V11H16zM18,10H19V11H18zM20,10H21V11H20zM22,10H23V11H22zM24,10H25V11H24zM26,10H27V11H26zM28,10H29V11H28zM30,10H31V11H30zM32,10H33V11H32zM34,10H35V11H34zM36,10H37V11H36zM38,10H39V11H38zM40,10H41V11H40zM42,10H43V11H42zM44,10H45V11H44zM46,10H47V11H46zM47,10H48V11H47zM48,10H49V11H48zM49,10H50V11H49zM50,10H51V11H50zM51,10H52V11H51zM52,10H53V11H52zM12,11H13V12H12zM13,11H14V12H13zM18,11H19V12H18zM21,11H22V12H21zM22,11H23V12H22zM23,11H24V12H23zM24,11H25V12H24zM25,11H26V12H25zM26,11H27V12H26zM30,11H31V12H30zM31,11H32V12H31zM32,11H33V12H32zM33,11H34V12H33zM34,11H35V12H34zM37,11H38V12H37zM40,11H41V12H40zM44,11H45V12H44zM4,12H5V13H4zM6,12H7V13H6zM7,12H8V13H7zM8,12H9V13H8zM9,12H10V13H9zM10,12H11V13H10zM13,12H14V13H13zM14,12H15V13H14zM17,12H18V13H17zM18,12H19V13H18zM19,12H20V13H19zM20,12H21V13H20zM22,12H23V13H22zM23,12H24V13H23zM24,12H25V13H24zM25,12H26V13H25zM26,12H27V13H26zM27,12H28V13H27zM28,12H29V13H28zM29,12H30V13H29zM30,12H31V13H30zM31,12H32V13H31zM32,12H33V13H32zM35,12H36V13H35zM37,12H38V13H37zM40,12H41V13H40zM41,12H42V13H41zM42,12H43V13H42zM44,12H45V13H44zM46,12H47V13H46zM47,12H48V13H47zM48,12H49V13H48zM49,12H50V13H49zM50,12H51V13H50zM4,13H5V14H4zM6,13H7V14H6zM7,13H8V14H7zM8,13H9V14H8zM9,13H10V14H9zM11,13H12V14H11zM13,13H14V14H13zM16,13H17V14H16zM17,13H18V14H17zM19,13H20V14H19zM20,13H21V14H20zM21,13H22V14H21zM22,13H23V14H22zM24,13H25V14H24zM25,13H26V14H25zM29,13H30V14H29zM31,13H32V14H31zM35,13H36V14H35zM36,13H37V14H36zM38,13H39V14H38zM39,13H40V14H39zM40,13H41V14H40zM41,13H42V14H41zM43,13H44V14H43zM44,13H45V14H44zM46,13H47V14H46zM49,13H50V14H49zM50,13H51V14H50zM6,14H7V15H6zM8,14H9V15H8zM9,14H10V15H9zM10,14H11V15H10zM12,14H13V15H12zM13,14H14V15H13zM17,14H18V15H17zM18,14H19V15H18zM19,14H20V15H19zM20,14H21V15H20zM23,14H24V15H23zM24,14H25V15H24zM25,14H26V15H25zM27,14H28V15H27zM31,14H32V15H31zM33,14H34V15H33zM34,14H35V15H34zM36,14H37V15H36zM37,14H38V15H37zM38,14H39V15H38zM40,14H41V15H40zM41,14H42V15H41zM42,14H43V15H42zM44,14H45V15H44zM45,14H46V15H45zM48,14H49V15H48zM51,14H52V15H51zM52,14H53V15H52zM4,15H5V16H4zM5,15H6V16H5zM6,15H7V16H6zM8,15H9V16H8zM9,15H10V16H9zM11,15H12V16H11zM12,15H13V16H12zM19,15H20V16H19zM20,15H21V16H20zM22,15H23V16H22zM25,15H26V16H25zM26,15H27V16H26zM30,15H31V16H30zM32,15H33V16H32zM34,15H35V16H34zM35,15H36V16H35zM36,15H37V16H36zM37,15H38V16H37zM39,15H40V16H39zM40,15H41V16H40zM42,15H43V16H42zM45,15H46V16H45zM46,15H47V16H46zM47,15H48V16H47zM48,15H49V16H48zM49,15H50V16H49zM50,15H51V16H50zM4,16H5V17H4zM7,16H8V17H7zM8,16H9V17H8zM9,16H10V17H9zM10,16H11V17H10zM11,16H12V17H11zM12,16H13V17H12zM17,16H18V17H17zM19,16H20V17H19zM20,16H21V17H20zM22,16H23V17H22zM23,16H24V17H23zM28,16H29V17H28zM30,16H31V17H30zM31,16H32V17H31zM33,16H34V17H33zM37,16H38V17H37zM38,16H39V17H38zM39,16H40V17H39zM40,16H41V17H40zM43,16H44V17H43zM44,16H45V17H44zM46,16H47V17H46zM48,16H49V17H48zM51,16H52V17H51zM4,17H5V18H4zM6,17H7V18H6zM7,17H8V18H7zM8,17H9V18H8zM14,17H15V18H14zM15,17H16V18H15zM16,17H17V18H16zM21,17H22V18H21zM25,17H26V18H25zM28,17H29V18H28zM30,17H31V18H30zM36,17H37V18H36zM37,17H38V18H37zM38,17H39V18H38zM39,17H40V18H39zM42,17H43V18H42zM43,17H44V18H43zM44,17H45V18H44zM45,17H46V18H45zM46,17H47V18H46zM47,17H48V18H47zM49,17H50V18H49zM50,17H51V18H50zM51,17H52V18H51zM6,18H7V19H6zM7,18H8V19H7zM8,18H9V19H8zM10,18H11V19H10zM11,18H12V19H11zM14,18H15V19H14zM15,18H16V19H15zM17,18H18V19H17zM18,18H19V19H18zM19,18H20V19H19zM20,18H21V19H20zM22,18H23V19H22zM23,18H24V19H23zM27,18H28V19H27zM28,18H29V19H28zM29,18H30V19H29zM33,18H34V19H33zM38,18H39V19H38zM39,18H40V19H39zM42,18H43V19H42zM43,18H44V19H43zM44,18H45V19H44zM48,18H49V19H48zM51,18H52V19H51zM52,18H53V19H52zM4,19H5V20H4zM6,19H7V20H6zM8,19H9V20H8zM9,19H10V20H9zM11,19H12V20H11zM13,19H14V20H13zM14,19H15V20H14zM17,19H18V20H17zM18,19H19V20H18zM19,19H20V20H19zM20,19H21V20H20zM21,19H22V20H21zM25,19H26V20H25zM27,19H28V20H27zM28,19H29V20H28zM29,19H30V20H29zM34,19H35V20H34zM35,19H36V20H35zM37,19H38V20H37zM40,19H41V20H40zM44,19H45V20H44zM45,19H46V20H45zM48,19H49V20H48zM49,19H50V20H49zM50,19H51V20H50zM51,19H52V20H51zM6,20H7V21H6zM10,20H11V21H10zM11,20H12V21H11zM13,20H14V21H13zM15,20H16V21H15zM16,20H17V21H16zM17,20H18V21H17zM18,20H19V21H18zM19,20H20V21H19zM20,20H21V21H20zM22,20H23V21H22zM23,20H24V21H23zM24,20H25V21H24zM27,20H28V21H27zM28,20H29V21H28zM30,20H31V21H30zM31,20H32V21H31zM33,20H34V21H33zM34,20H35V21H34zM40,20H41V21H40zM42,20H43V21H42zM43,20H44V21H43zM44,20H45V21H44zM45,20H46V21H45zM46,20H47V21H46zM47,20H48V21H47zM51,20H52V21H51zM5,21H6V22H5zM6,21H7V22H6zM8,21H9V22H8zM9,21H10V22H9zM14,21H15V22H14zM16,21H17V22H16zM19,21H20V22H19zM20,21H21V22H20zM22,21H23V22H22zM24,21H25V22H24zM25,21H26V22H25zM26,21H27V22H26zM28,21H29V22H28zM30,21H31V22H30zM34,21H35V22H34zM35,21H36V22H35zM37,21H38V22H37zM40,21H41V22H40zM46,21H47V22H46zM47,21H48V22H47zM48,21H49V22H48zM51,21H52V22H51zM4,22H5V23H4zM6,22H7V23H6zM7,22H8V23H7zM9,22H10V23H9zM10,22H11V23H10zM12,22H13V23H12zM17,22H18V23H17zM18,22H19V23H18zM22,22H23V23H22zM27,22H28V23H27zM28,22H29V23H28zM29,22H30V23H29zM31,22H32V23H31zM33,22H34V23H33zM34,22H35V23H34zM40,22H41V23H40zM41,22H42V23H41zM45,22H46V23H45zM47,22H48V23H47zM48,22H49V23H48zM49,22H50V23H49zM52,22H53V23H52zM4,23H5V24H4zM7,23H8V24H7zM9,23H10V24H9zM11,23H12V24H11zM15,23H16V24H15zM16,23H17V24H16zM18,23H19V24H18zM20,23H21V24H20zM22,23H23V24H22zM23,23H24V24H23zM32,23H33V24H32zM33,23H34V24H33zM34,23H35V24H34zM35,23H36V24H35zM36,23H37V24H36zM37,23H38V24H37zM41,23H42V24H41zM47,23H48V24H47zM48,23H49V24H48zM4,24H5V25H4zM5,24H6V25H5zM8,24H9V25H8zM9,24H10V25H9zM10,24H11V25H10zM11,24H12V25H11zM13,24H14V25H13zM14,24H15V25H14zM15,24H16V25H15zM18,24H19V25H18zM19,24H20V25H19zM21,24H22V25H21zM22,24H23V25H22zM23,24H24V25H23zM24,24H25V25H24zM25,24H26V25H25zM26,24H27V25H26zM27,24H28V25H27zM28,24H29V25H28zM29,24H30V25H29zM31,24H32V25H31zM34,24H35V25H34zM36,24H37V25H36zM37,24H38V25H37zM38,24H39V25H38zM43,24H44V25H43zM44,24H45V25H44zM47,24H48V25H47zM50,24H51V25H50zM7,25H8V26H7zM13,25H14V26H13zM14,25H15V26H14zM17,25H18V26H17zM18,25H19V26H18zM26,25H27V26H26zM28,25H29V26H28zM31,25H32V26H31zM32,25H33V26H32zM33,25H34V26H33zM34,25H35V26H34zM39,25H40V26H39zM40,25H41V26H40zM41,25H42V26H41zM43,25H44V26H43zM47,25H48V26H47zM49,25H50V26H49zM51,25H52V26H51zM52,25H53V26H52zM5,26H6V27H5zM6,26H7V27H6zM8,26H9V27H8zM9,26H10V27H9zM10,26H11V27H10zM11,26H12V27H11zM12,26H13V27H12zM14,26H15V27H14zM16,26H17V27H16zM18,26H19V27H18zM21,26H22V27H21zM22,26H23V27H22zM23,26H24V27H23zM24,26H25V27H24zM25,26H26V27H25zM26,26H27V27H26zM27,26H28V27H27zM28,26H29V27H28zM29,26H30V27H29zM30,26H31V27H30zM31,26H32V27H31zM32,26H33V27H32zM37,26H38V27H37zM39,26H40V27H39zM40,26H41V27H40zM42,26H43V27H42zM44,26H45V27H44zM45,26H46V27H45zM46,26H47V27H46zM47,26H48V27H47zM48,26H49V27H48zM49,26H50V27H49zM50,26H51V27H50zM52,26H53V27H52zM6,27H7V28H6zM7,27H8V28H7zM8,27H9V28H8zM12,27H13V28H12zM13,27H14V28H13zM14,27H15V28H14zM19,27H20V28H19zM20,27H21V28H20zM21,27H22V28H21zM23,27H24V28H23zM24,27H25V28H24zM26,27H27V28H26zM30,27H31V28H30zM31,27H32V28H31zM32,27H33V28H32zM34,27H35V28H34zM35,27H36V28H35zM36,27H37V28H36zM38,27H39V28H38zM44,27H45V28H44zM48,27H49V28H48zM49,27H50V28H49zM7,28H8V29H7zM8,28H9V29H8zM10,28H11V29H10zM12,28H13V29H12zM13,28H14V29H13zM15,28H16V29H15zM18,28H19V29H18zM19,28H20V29H19zM23,28H24V29H23zM24,28H25V29H24zM26,28H27V29H26zM28,28H29V29H28zM30,28H31V29H30zM32,28H33V29H32zM33,28H34V29H33zM35,28H36V29H35zM40,28H41V29H40zM42,28H43V29H42zM44,28H45V29H44zM46,28H47V29H46zM48,28H49V29H48zM49,28H50V29H49zM50,28H51V29H50zM52,28H53V29H52zM5,29H6V30H5zM8,29H9V30H8zM12,29H13V30H12zM17,29H18V30H17zM18,29H19V30H18zM20,29H21V30H20zM21,29H22V30H21zM26,29H27V30H26zM30,29H31V30H30zM32,29H33V30H32zM36,29H37V30H36zM38,29H39V30H38zM39,29H40V30H39zM40,29H41V30H40zM41,29H42V30H41zM44,29H45V30H44zM48,29H49V30H48zM49,29H50V30H49zM4,30H5V31H4zM5,30H6V31H5zM8,30H9V31H8zM9,30H10V31H9zM10,30H11V31H10zM11,30H12V31H11zM12,30H13V31H12zM15,30H16V31H15zM16,30H17V31H16zM18,30H19V31H18zM20,30H21V31H20zM21,30H22V31H21zM25,30H26V31H25zM26,30H27V31H26zM27,30H28V31H27zM28,30H29V31H28zM29,30H30V31H29zM30,30H31V31H30zM35,30H36V31H35zM37,30H38V31H37zM39,30H40V31H39zM42,30H43V31H42zM44,30H45V31H44zM45,30H46V31H45zM46,30H47V31H46zM47,30H48V31H47zM48,30H49V31H48zM50,30H51V31H50zM51,30H52V31H51zM52,30H53V31H52zM4,31H5V32H4zM5,31H6V32H5zM6,31H7V32H6zM7,31H8V32H7zM8,31H9V32H8zM9,31H10V32H9zM12,31H13V32H12zM14,31H15V32H14zM15,31H16V32H15zM16,31H17V32H16zM17,31H18V32H17zM18,31H19V32H18zM19,31H20V32H19zM20,31H21V32H20zM21,31H22V32H21zM22,31H23V32H22zM23,31H24V32H23zM26,31H27V32H26zM27,31H28V32H27zM28,31H29V32H28zM29,31H30V32H29zM31,31H32V32H31zM32,31H33V32H32zM33,31H34V32H33zM34,31H35V32H34zM35,31H36V32H35zM36,31H37V32H36zM42,31H43V32H42zM45,31H46V32H45zM47,31H48V32H47zM49,31H50V32H49zM52,31H53V32H52zM7,32H8V33H7zM8,32H9V33H8zM10,32H11V33H10zM11,32H12V33H11zM13,32H14V33H13zM14,32H15V33H14zM15,32H16V33H15zM16,32H17V33H16zM17,32H18V33H17zM19,32H20V33H19zM20,32H21V33H20zM21,32H22V33H21zM25,32H26V33H25zM27,32H28V33H27zM28,32H29V33H28zM31,32H32V33H31zM33,32H34V33H33zM37,32H38V33H37zM38,32H39V33H38zM40,32H41V33H40zM41,32H42V33H41zM46,32H47V33H46zM47,32H48V33H47zM48,32H49V33H48zM50,32H51V33H50zM52,32H53V33H52zM4,33H5V34H4zM7,33H8V34H7zM8,33H9V34H8zM9,33H10V34H9zM14,33H15V34H14zM15,33H16V34H15zM21,33H22V34H21zM22,33H23V34H22zM23,33H24V34H23zM24,33H25V34H24zM28,33H29V34H28zM29,33H30V34H29zM32,33H33V34H32zM35,33H36V34H35zM37,33H38V34H37zM38,33H39V34H38zM40,33H41V34H40zM43,33H44V34H43zM44,33H45V34H44zM50,33H51V34H50zM7,34H8V35H7zM9,34H10V35H9zM10,34H11V35H10zM13,34H14V35H13zM14,34H15V35H14zM19,34H20V35H19zM20,34H21V35H20zM21,34H22V35H21zM22,34H23V35H22zM24,34H25V35H24zM25,34H26V35H25zM27,34H28V35H27zM28,34H29V35H28zM29,34H30V35H29zM32,34H33V35H32zM33,34H34V35H33zM35,34H36V35H35zM38,34H39V35H38zM40,34H41V35H40zM42,34H43V35H42zM43,34H44V35H43zM44,34H45V35H44zM47,34H48V35H47zM48,34H49V35H48zM49,34H50V35H49zM50,34H51V35H50zM51,34H52V35H51zM52,34H53V35H52zM4,35H5V36H4zM5,35H6V36H5zM7,35H8V36H7zM11,35H12V36H11zM14,35H15V36H14zM16,35H17V36H16zM19,35H20V36H19zM22,35H23V36H22zM23,35H24V36H23zM24,35H25V36H24zM26,35H27V36H26zM28,35H29V36H28zM30,35H31V36H30zM31,35H32V36H31zM33,35H34V36H33zM38,35H39V36H38zM40,35H41V36H40zM41,35H42V36H41zM42,35H43V36H42zM43,35H44V36H43zM45,35H46V36H45zM49,35H50V36H49zM50,35H51V36H50zM52,35H53V36H52zM4,36H5V37H4zM8,36H9V37H8zM9,36H10V37H9zM10,36H11V37H10zM11,36H12V37H11zM12,36H13V37H12zM16,36H17V37H16zM18,36H19V37H18zM19,36H20V37H19zM20,36H21V37H20zM21,36H22V37H21zM23,36H24V37H23zM24,36H25V37H24zM26,36H27V37H26zM29,36H30V37H29zM32,36H33V37H32zM35,36H36V37H35zM36,36H37V37H36zM37,36H38V37H37zM38,36H39V37H38zM40,36H41V37H40zM42,36H43V37H42zM43,36H44V37H43zM44,36H45V37H44zM47,36H48V37H47zM48,36H49V37H48zM51,36H52V37H51zM52,36H53V37H52zM6,37H7V38H6zM7,37H8V38H7zM9,37H10V38H9zM11,37H12V38H11zM14,37H15V38H14zM16,37H17V38H16zM17,37H18V38H17zM21,37H22V38H21zM29,37H30V38H29zM31,37H32V38H31zM32,37H33V38H32zM33,37H34V38H33zM36,37H37V38H36zM38,37H39V38H38zM40,37H41V38H40zM42,37H43V38H42zM43,37H44V38H43zM46,37H47V38H46zM48,37H49V38H48zM49,37H50V38H49zM51,37H52V38H51zM10,38H11V39H10zM12,38H13V39H12zM15,38H16V39H15zM17,38H18V39H17zM18,38H19V39H18zM20,38H21V39H20zM22,38H23V39H22zM24,38H25V39H24zM25,38H26V39H25zM26,38H27V39H26zM27,38H28V39H27zM28,38H29V39H28zM30,38H31V39H30zM32,38H33V39H32zM34,38H35V39H34zM35,38H36V39H35zM36,38H37V39H36zM37,38H38V39H37zM41,38H42V39H41zM46,38H47V39H46zM47,38H48V39H47zM49,38H50V39H49zM4,39H5V40H4zM8,39H9V40H8zM9,39H10V40H9zM12,39H13V40H12zM14,39H15V40H14zM16,39H17V40H16zM17,39H18V40H17zM18,39H19V40H18zM19,39H20V40H19zM21,39H22V40H21zM29,39H30V40H29zM30,39H31V40H30zM32,39H33V40H32zM33,39H34V40H33zM34,39H35V40H34zM35,39H36V40H35zM36,39H37V40H36zM37,39H38V40H37zM38,39H39V40H38zM39,39H40V40H39zM40,39H41V40H40zM41,39H42V40H41zM42,39H43V40H42zM44,39H45V40H44zM45,39H46V40H45zM48,39H49V40H48zM52,39H53V40H52zM5,40H6V41H5zM9,40H10V41H9zM10,40H11V41H10zM12,40H13V41H12zM13,40H14V41H13zM19,40H20V41H19zM23,40H24V41H23zM26,40H27V41H26zM29,40H30V41H29zM30,40H31V41H30zM31,40H32V41H31zM32,40H33V41H32zM33,40H34V41H33zM34,40H35V41H34zM41,40H42V41H41zM42,40H43V41H42zM43,40H44V41H43zM44,40H45V41H44zM45,40H46V41H45zM48,40H49V41H48zM49,40H50V41H49zM50,40H51V41H50zM51,40H52V41H51zM52,40H53V41H52zM5,41H6V42H5zM6,41H7V42H6zM7,41H8V42H7zM9,41H10V42H9zM11,41H12V42H11zM12,41H13V42H12zM19,41H20V42H19zM22,41H23V42H22zM25,41H26V42H25zM28,41H29V42H28zM30,41H31V42H30zM31,41H32V42H31zM33,41H34V42H33zM34,41H35V42H34zM35,41H36V42H35zM36,41H37V42H36zM41,41H42V42H41zM45,41H46V42H45zM47,41H48V42H47zM50,41H51V42H50zM51,41H52V42H51zM52,41H53V42H52zM5,42H6V43H5zM9,42H10V43H9zM10,42H11V43H10zM12,42H13V43H12zM14,42H15V43H14zM15,42H16V43H15zM21,42H22V43H21zM27,42H28V43H27zM28,42H29V43H28zM30,42H31V43H30zM37,42H38V43H37zM40,42H41V43H40zM41,42H42V43H41zM42,42H43V43H42zM43,42H44V43H43zM45,42H46V43H45zM46,42H47V43H46zM47,42H48V43H47zM48,42H49V43H48zM49,42H50V43H49zM50,42H51V43H50zM51,42H52V43H51zM52,42H53V43H52zM5,43H6V44H5zM6,43H7V44H6zM7,43H8V44H7zM12,43H13V44H12zM17,43H18V44H17zM20,43H21V44H20zM21,43H22V44H21zM22,43H23V44H22zM24,43H25V44H24zM27,43H28V44H27zM28,43H29V44H28zM30,43H31V44H30zM31,43H32V44H31zM33,43H34V44H33zM34,43H35V44H34zM39,43H40V44H39zM41,43H42V44H41zM45,43H46V44H45zM51,43H52V44H51zM52,43H53V44H52zM4,44H5V45H4zM5,44H6V45H5zM6,44H7V45H6zM10,44H11V45H10zM11,44H12V45H11zM14,44H15V45H14zM16,44H17V45H16zM17,44H18V45H17zM21,44H22V45H21zM23,44H24V45H23zM24,44H25V45H24zM25,44H26V45H25zM26,44H27V45H26zM27,44H28V45H27zM28,44H29V45H28zM29,44H30V45H29zM30,44H31V45H30zM31,44H32V45H31zM32,44H33V45H32zM35,44H36V45H35zM36,44H37V45H36zM38,44H39V45H38zM40,44H41V45H40zM41,44H42V45H41zM43,44H44V45H43zM44,44H45V45H44zM45,44H46V45H45zM46,44H47V45H46zM47,44H48V45H47zM48,44H49V45H48zM49,44H50V45H49zM50,44H51V45H50zM52,44H53V45H52zM12,45H13V46H12zM13,45H14V46H13zM14,45H15V46H14zM15,45H16V46H15zM17,45H18V46H17zM18,45H19V46H18zM19,45H20V46H19zM20,45H21V46H20zM21,45H22V46H21zM26,45H27V46H26zM30,45H31V46H30zM32,45H33V46H32zM33,45H34V46H33zM34,45H35V46H34zM40,45H41V46H40zM41,45H42V46H41zM43,45H44V46H43zM44,45H45V46H44zM48,45H49V46H48zM51,45H52V46H51zM4,46H5V47H4zM5,46H6V47H5zM6,46H7V47H6zM7,46H8V47H7zM8,46H9V47H8zM9,46H10V47H9zM10,46H11V47H10zM13,46H14V47H13zM16,46H17V47H16zM17,46H18V47H17zM21,46H22V47H21zM22,46H23V47H22zM23,46H24V47H23zM26,46H27V47H26zM28,46H29V47H28zM30,46H31V47H30zM32,46H33V47H32zM33,46H34V47H33zM35,46H36V47H35zM36,46H37V47H36zM37,46H38V47H37zM38,46H39V47H38zM39,46H40V47H39zM40,46H41V47H40zM41,46H42V47H41zM42,46H43V47H42zM44,46H45V47H44zM46,46H47V47H46zM48,46H49V47H48zM49,46H50V47H49zM51,46H52V47H51zM52,46H53V47H52zM4,47H5V48H4zM10,47H11V48H10zM12,47H13V48H12zM14,47H15V48H14zM15,47H16V48H15zM16,47H17V48H16zM18,47H19V48H18zM20,47H21V48H20zM22,47H23V48H22zM23,47H24V48H23zM26,47H27V48H26zM30,47H31V48H30zM31,47H32V48H31zM32,47H33V48H32zM36,47H37V48H36zM39,47H40V48H39zM41,47H42V48H41zM43,47H44V48H43zM44,47H45V48H44zM48,47H49V48H48zM49,47H50V48H49zM50,47H51V48H50zM52,47H53V48H52zM4,48H5V49H4zM6,48H7V49H6zM7,48H8V49H7zM8,48H9V49H8zM10,48H11V49H10zM12,48H13V49H12zM13,48H14V49H13zM14,48H15V49H14zM15,48H16V49H15zM16,48H17V49H16zM17,48H18V49H17zM18,48H19V49H18zM20,48H21V49H20zM22,48H23V49H22zM23,48H24V49H23zM25,48H26V49H25zM26,48H27V49H26zM27,48H28V49H27zM28,48H29V49H28zM29,48H30V49H29zM30,48H31V49H30zM33,48H34V49H33zM34,48H35V49H34zM38,48H39V49H38zM39,48H40V49H39zM40,48H41V49H40zM44,48H45V49H44zM45,48H46V49H45zM46,48H47V49H46zM47,48H48V49H47zM48,48H49V49H48zM50,48H51V49H50zM52,48H53V49H52zM4,49H5V50H4zM6,49H7V50H6zM7,49H8V50H7zM8,49H9V50H8zM10,49H11V50H10zM12,49H13V50H12zM13,49H14V50H13zM14,49H15V50H14zM18,49H19V50H18zM26,49H27V50H26zM29,49H30V50H29zM30,49H31V50H30zM34,49H35V50H34zM35,49H36V50H35zM37,49H38V50H37zM38,49H39V50H38zM40,49H41V50H40zM42,49H43V50H42zM44,49H45V50H44zM46,49H47V50H46zM47,49H48V50H47zM48,49H49V50H48zM49,49H50V50H49zM50,49H51V50H50zM51,49H52V50H51zM4,50H5V51H4zM6,50H7V51H6zM7,50H8V51H7zM8,50H9V51H8zM10,50H11V51H10zM12,50H13V51H12zM13,50H14V51H13zM17,50H18V51H17zM19,50H20V51H19zM23,50H24V51H23zM25,50H26V51H25zM27,50H28V51H27zM28,50H29V51H28zM30,50H31V51H30zM32,50H33V51H32zM33,50H34V51H33zM35,50H36V51H35zM39,50H40V51H39zM40,50H41V51H40zM42,50H43V51H42zM43,50H44V51H43zM47,50H48V51H47zM50,50H51V51H50zM52,50H53V51H52zM4,51H5V52H4zM10,51H11V52H10zM13,51H14V52H13zM14,51H15V52H14zM15,51H16V52H15zM16,51H17V52H16zM17,51H18V52H17zM19,51H20V52H19zM20,51H21V52H20zM21,51H22V52H21zM22,51H23V52H22zM26,51H27V52H26zM27,51H28V52H27zM28,51H29V52H28zM29,51H30V52H29zM30,51H31V52H30zM34,51H35V52H34zM35,51H36V52H35zM37,51H38V52H37zM39,51H40V52H39zM40,51H41V52H40zM42,51H43V52H42zM47,51H48V52H47zM49,51H50V52H49zM52,51H53V52H52zM4,52H5V53H4zM5,52H6V53H5zM6,52H7V53H6zM7,52H8V53H7zM8,52H9V53H8zM9,52H10V53H9zM10,52H11V53H10zM12,52H13V53H12zM15,52H16V53H15zM22,52H23V53H22zM23,52H24V53H23zM24,52H25V53H24zM25,52H26V53H25zM28,52H29V53H28zM31,52H32V53H31zM33,52H34V53H33zM34,52H35V53H34zM41,52H42V53H41zM43,52H44V53H43zM44,52H45V53H44zM45,52H46V53H45zM51,52H52V53H51zM52,52H53V53H52z" id="qr-path" fill="#000000" fill-opacity="1" fill-rule="nonzero" stroke="none"/></svg>