<?xml version='1.0' encoding='UTF-8'?>
<svg width="57mm" height="57mm" version="1.1" viewBox="0 0 57 57" xmlns="http://www.w3.org/2000/svg"><path d="M4,4H5V5H4zM5,4H6V5H5zM6,4H7V5H6zM7,4H8V5H7zM8,4H9V5H8zM9,4H10V5H9zM10,4H11V5H10zM12,4H13V5H12zM13,4H14V5H13zM15,4H16V5H15zM16,4H17V5H16zM18,4H19V5H18zM19,4H20V5H19zM20,4H21V5H20zM21,4H22V5H21zM23,4H24V5H23zM24,4H25V5H24zM26,4H27V5H26zM27,4H28V5H27zM28,4H29V5H28zM31,4H32V5H31zM35,4H36V5H35zM37,4H38V5H37zM38,4H39V5H38zM39,4H40V5H39zM40,4H41V5H40zM44,4H45V5H44zM46,4H47V5H46zM47,4H48V5H47zM48,4H49V5H48zM49,4H50V5H49zM50,4H51V5H50zM51,4H52V5H51zM52,4H53V5H52zM4,5H5V6H4zM10,5H11V6H10zM14,5H15V6H14zM16,5H17V6H16zM17,5H18V6H17zM20,5H21V6H20zM21,5H22V6H21zM22,5H23V6H22zM24,5H25V6H24zM26,5H27V6H26zM27,5H28V6H27zM31,5H32V6H31zM32,5H33V6H32zM35,5H36V6H35zM36,5H37V6H36zM40,5H41V6H40zM41,5H42V6H41zM42,5H43V6H42zM43,5H44V6H43zM44,5H45V6H44zM46,5H47V6H46zM52,5H53V6H52zM4,6H5V7H4zM6,6H7V7H6zM7,6H8V7H7zM8,6H9V7H8zM10,6H11V7H10zM12,6H13V7H12zM15,6H16V7H15zM16,6H17V7H16zM17,6H18V7H17zM18,6H19V7H18zM19,6H20V7H19zM20,6H21V7H20zM23,6H24V7H23zM25,6H26V7H25zM27,6H28V7H27zM28,6H29V7H28zM29,6H30V7H29zM30,6H31V7H30zM33,6H34V7H33zM34,6H35V7H34zM37,6H38V7H37zM38,6H39V7H38zM40,6H41V7H40zM41,6H42V7H41zM43,6H44V7H43zM44,6H45V7H44zM46,6H47V7H46zM48,6H49V7H48zM49,6H50V7H49zM50,6H51V7H50zM52,6H53V7H52zM4,7H5V8H4zM6,7H7V8H6zM7,7H8V8H7zM8,7H9V8H8zM10,7H11V8H10zM13,7H14V8H13zM14,7H15V8H14zM15,7H16V8H15zM16,7H17V8H16zM18,7H19V8H18zM20,7H21V8H20zM21,7H22V8H21zM26,7H27V8H26zM27,7H28V8H27zM28,7H29V8H28zM29,7H30V8H29zM30,7H31V8H30zM32,7H33V8H32zM37,7H38V8H37zM40,7H41V8H40zM41,7H42V8H41zM43,7H44V8H43zM46,7H47V8H46zM48,7H49V8H48zM49,7H50V8H49zM50,7H51V8H50zM52,7H53V8H52zM4,8H5V9H4zM6,8H7V9H6zM7,8H8V9H7zM8,8H9V9H8zM10,8H11V9H10zM13,8H14V9H13zM18,8H19V9H18zM19,8H20V9H19zM21,8H22V9H21zM26,8H27V9H26zM27,8H28V9H27zM28,8H29V9H28zM29,8H30V9H29zM30,8H31V9H30zM31,8H32V9H31zM32,8H33V9H32zM34,8H35V9H34zM38,8H39V9H38zM39,8H40V9H39zM46,8H47V9H46zM48,8H49V9H48zM49,8H50V9H49zM50,8H51V9H50zM52,8H53V9H52zM4,9H5V10H4zM10,9H11V10H10zM12,9H13V10H12zM13,9H14V10H13zM14,9H15V10H14zM15,9H16V10H15zM16,9H17V10H16zM17,9H18V10H17zM19,9H20V10H19zM24,9H25V10H24zM25,9H26V10H25zM26,9H27V10H26zM30,9H31V10H30zM31,9H32V10H31zM37,9H38V10H37zM41,9H42V10H41zM42,9H43V10H42zM46,9H47V10H46zM52,9H53V10H52zM4,10H5V11H4zM5,10H6V11H5zM6,10H7V11H6zM7,10H8V11H7zM8,10H9V11H8zM9,10H10V11H9zM10,10H11V11H10zM12,10H13V11H12zM14,10H15V11H14zM16,10H17V11H16zM18,10H19V11H18zM20,10H21V11H20zM22,10H23V11H22zM24,10H25V11H24zM26,10H27V11H26zM28,10H29V11H28zM30,10H31V11H30zM32,10H33V11H32zM34,10H35V11H34zM36,10H37V11H36zM38,10H39V11H38zM40,10H41V11H40zM42,10H43V11H42zM44,10H45V11H44zM46,10H47V11H46zM47,10H48V11H47zM48,10H49V11H48zM49,10H50V11H49zM50,10H51V11H50zM51,10H52V11H51zM52,10H53V11H52zM13,11H14V12H13zM14,11H15V12H14zM18,11H19V12H18zM20,11H21V12H20zM22,11H23V12H22zM23,11H24V12H23zM24,11H25V12H24zM25,11H26V12H25zM26,11H27V12H26zM30,11H31V12H30zM32,11H33V12H32zM34,11H35V12H34zM35,11H36V12H35zM36,11H37V12H36zM37,11H38V12H37zM38,11H39V12H38zM39,11H40V12H39zM40,11H41V12H40zM43,11H44V12H43zM44,11H45V12H44zM4,12H5V13H4zM6,12H7V13H6zM10,12H11V13H10zM11,12H12V13H11zM14,12H15V13H14zM18,12H19V13H18zM19,12H20V13H19zM20,12H21V13H20zM22,12H23V13H22zM26,12H27V13H26zM27,12H28V13H27zM28,12H29V13H28zM29,12H30V13H29zM30,12H31V13H30zM31,12H32V13H31zM33,12H34V13H33zM35,12H36V13H35zM38,12H39V13H38zM39,12H40V13H39zM40,12H41V13H40zM47,12H48V13H47zM50,12H51V13H50zM52,12H53V13H52zM5,13H6V14H5zM8,13H9V14H8zM9,13H10V14H9zM12,13H13V14H12zM13,13H14V14H13zM14,13H15V14H14zM21,13H22V14H21zM22,13H23V14H22zM26,13H27V14H26zM28,13H29V14H28zM29,13H30V14H29zM34,13H35V14H34zM36,13H37V14H36zM41,13H42V14H41zM47,13H48V14H47zM48,13H49V14H48zM49,13H50V14H49zM51,13H52V14H51zM52,13H53V14H52zM5,14H6V15H5zM6,14H7V15H6zM7,14H8V15H7zM9,14H10V15H9zM10,14H11V15H10zM11,14H12V15H11zM18,14H19V15H18zM19,14H20V15H19zM23,14H24V15H23zM26,14H27V15H26zM29,14H30V15H29zM30,14H31V15H30zM34,14H35V15H34zM36,14H37V15H36zM37,14H38V15H37zM40,14H41V15H40zM41,14H42V15H41zM44,14H45V15H44zM46,14H47V15H46zM47,14H48V15H47zM49,14H50V15H49zM50,14H51V15H50zM52,14H53V15H52zM4,15H5V16H4zM5,15H6V16H5zM7,15H8V16H7zM8,15H9V16H8zM9,15H10V16H9zM16,15H17V16H16zM18,15H19V16H18zM21,15H22V16H21zM26,15H27V16H26zM28,15H29V16H28zM31,15H32V16H31zM32,15H33V16H32zM35,15H36V16H35zM36,15H37V16H36zM37,15H38V16H37zM39,15H40V16H39zM42,15H43V16H42zM44,15H45V16H44zM45,15H46V16H45zM47,15H48V16H47zM48,15H49V16H48zM49,15H50V16H49zM50,15H51V16H50zM4,16H5V17H4zM5,16H6V17H5zM6,16H7V17H6zM7,16H8V17H7zM9,16H10V17H9zM10,16H11V17H10zM11,16H12V17H11zM14,16H15V17H14zM15,16H16V17H15zM16,16H17V17H16zM19,16H20V17H19zM21,16H22V17H21zM24,16H25V17H24zM25,16H26V17H25zM27,16H28V17H27zM29,16H30V17H29zM31,16H32V17H31zM32,16H33V17H32zM33,16H34V17H33zM34,16H35V17H34zM35,16H36V17H35zM36,16H37V17H36zM38,16H39V17H38zM40,16H41V17H40zM42,16H43V17H42zM45,16H46V17H45zM46,16H47V17H46zM47,16H48V17H47zM49,16H50V17H49zM50,16H51V17H50zM51,16H52V17H51zM52,16H53V17H52zM5,17H6V18H5zM6,17H7V18H6zM7,17H8V18H7zM8,17H9V18H8zM9,17H10V18H9zM13,17H14V18H13zM14,17H15V18H14zM16,17H17V18H16zM19,17H20V18H19zM22,17H23V18H22zM28,17H29V18H28zM30,17H31V18H30zM31,17H32V18H31zM34,17H35V18H34zM36,17H37V18H36zM38,17H39V18H38zM39,17H40V18H39zM40,17H41V18H40zM44,17H45V18H44zM45,17H46V18H45zM49,17H50V18H49zM51,17H52V18H51zM52,17H53V18H52zM4,18H5V19H4zM6,18H7V19H6zM7,18H8V19H7zM9,18H10V19H9zM10,18H11V19H10zM11,18H12V19H11zM12,18H13V19H12zM14,18H15V19H14zM17,18H18V19H17zM18,18H19V19H18zM20,18H21V19H20zM21,18H22V19H21zM24,18H25V19H24zM26,18H27V19H26zM29,18H30V19H29zM30,18H31V19H30zM32,18H33V19H32zM35,18H36V19H35zM36,18H37V19H36zM37,18H38V19H37zM42,18H43V19H42zM43,18H44V19H43zM45,18H46V19H45zM48,18H49V19H48zM49,18H50V19H49zM50,18H51V19H50zM52,18H53V19H52zM4,19H5V20H4zM5,19H6V20H5zM6,19H7V20H6zM7,19H8V20H7zM8,19H9V20H8zM9,19H10V20H9zM12,19H13V20H12zM14,19H15V20H14zM16,19H17V20H16zM17,19H18V20H17zM18,19H19V20H18zM19,19H20V20H19zM20,19H21V20H20zM21,19H22V20H21zM22,19H23V20H22zM30,19H31V20H30zM31,19H32V20H31zM35,19H36V20H35zM39,19H40V20H39zM41,19H42V20H41zM48,19H49V20H48zM50,19H51V20H50zM51,19H52V20H51zM52,19H53V20H52zM4,20H5V21H4zM7,20H8V21H7zM8,20H9V21H8zM9,20H10V21H9zM10,20H11V21H10zM13,20H14V21H13zM14,20H15V21H14zM16,20H17V21H16zM18,20H19V21H18zM19,20H20V21H19zM21,20H22V21H21zM26,20H27V21H26zM27,20H28V21H27zM29,20H30V21H29zM31,20H32V21H31zM32,20H33V21H32zM34,20H35V21H34zM35,20H36V21H35zM36,20H37V21H36zM37,20H38V21H37zM38,20H39V21H38zM39,20H40V21H39zM41,20H42V21H41zM42,20H43V21H42zM48,20H49V21H48zM5,21H6V22H5zM12,21H13V22H12zM14,21H15V22H14zM15,21H16V22H15zM16,21H17V22H16zM17,21H18V22H17zM20,21H21V22H20zM22,21H23V22H22zM26,21H27V22H26zM28,21H29V22H28zM31,21H32V22H31zM35,21H36V22H35zM39,21H40V22H39zM42,21H43V22H42zM43,21H44V22H43zM45,21H46V22H45zM48,21H49V22H48zM49,21H50V22H49zM51,21H52V22H51zM52,21H53V22H52zM4,22H5V23H4zM5,22H6V23H5zM7,22H8V23H7zM9,22H10V23H9zM10,22H11V23H10zM11,22H12V23H11zM12,22H13V23H12zM15,22H16V23H15zM17,22H18V23H17zM19,22H20V23H19zM26,22H27V23H26zM27,22H28V23H27zM31,22H32V23H31zM32,22H33V23H32zM34,22H35V23H34zM35,22H36V23H35zM36,22H37V23H36zM37,22H38V23H37zM38,22H39V23H38zM39,22H40V23H39zM45,22H46V23H45zM49,22H50V23H49zM50,22H51V23H50zM51,22H52V23H51zM4,23H5V24H4zM5,23H6V24H5zM7,23H8V24H7zM8,23H9V24H8zM12,23H13V24H12zM15,23H16V24H15zM17,23H18V24H17zM18,23H19V24H18zM21,23H22V24H21zM25,23H26V24H25zM28,23H29V24H28zM31,23H32V24H31zM32,23H33V24H32zM33,23H34V24H33zM35,23H36V24H35zM40,23H41V24H40zM41,23H42V24H41zM43,23H44V24H43zM44,23H45V24H44zM46,23H47V24H46zM47,23H48V24H47zM48,23H49V24H48zM49,23H50V24H49zM51,23H52V24H51zM52,23H53V24H52zM4,24H5V25H4zM8,24H9V25H8zM10,24H11V25H10zM12,24H13V25H12zM15,24H16V25H15zM17,24H18V25H17zM18,24H19V25H18zM19,24H20V25H19zM21,24H22V25H21zM23,24H24V25H23zM24,24H25V25H24zM28,24H29V25H28zM30,24H31V25H30zM31,24H32V25H31zM32,24H33V25H32zM33,24H34V25H33zM34,24H35V25H34zM35,24H36V25H35zM37,24H38V25H37zM39,24H40V25H39zM41,24H42V25H41zM42,24H43V25H42zM43,24H44V25H43zM46,24H47V25H46zM48,24H49V25H48zM51,24H52V25H51zM52,24H53V25H52zM5,25H6V26H5zM11,25H12V26H11zM13,25H14V26H13zM15,25H16V26H15zM17,25H18V26H17zM18,25H19V26H18zM20,25H21V26H20zM21,25H22V26H21zM23,25H24V26H23zM27,25H28V26H27zM31,25H32V26H31zM33,25H34V26H33zM35,25H36V26H35zM36,25H37V26H36zM37,25H38V26H37zM41,25H42V26H41zM46,25H47V26H46zM47,25H48V26H47zM7,26H8V27H7zM8,26H9V27H8zM9,26H10V27H9zM10,26H11V27H10zM11,26H12V27H11zM12,26H13V27H12zM21,26H22V27H21zM22,26H23V27H22zM25,26H26V27H25zM26,26H27V27H26zM27,26H28V27H27zM28,26H29V27H28zM29,26H30V27H29zM30,26H31V27H30zM31,26H32V27H31zM33,26H34V27H33zM36,26H37V27H36zM37,26H38V27H37zM38,26H39V27H38zM40,26H41V27H40zM41,26H42V27H41zM44,26H45V27H44zM45,26H46V27H45zM46,26H47V27H46zM47,26H48V27H47zM48,26H49V27H48zM49,26H50V27H49zM50,26H51V27H50zM51,26H52V27H51zM52,26H53V27H52zM4,27H5V28H4zM8,27H9V28H8zM12,27H13V28H12zM14,27H15V28H14zM15,27H16V28H15zM18,27H19V28H18zM20,27H21V28H20zM23,27H24V28H23zM25,27H26V28H25zM26,27H27V28H26zM30,27H31V28H30zM31,27H32V28H31zM32,27H33V28H32zM33,27H34V28H33zM35,27H36V28H35zM39,27H40V28H39zM40,27H41V28H40zM41,27H42V28H41zM43,27H44V28H43zM44,27H45V28H44zM48,27H49V28H48zM49,27H50V28H49zM5,28H6V29H5zM6,28H7V29H6zM7,28H8V29H7zM8,28H9V29H8zM10,28H11V29H10zM12,28H13V29H12zM13,28H14V29H13zM14,28H15V29H14zM15,28H16V29H15zM16,28H17V29H16zM17,28H18V29H17zM18,28H19V29H18zM19,28H20V29H19zM20,28H21V29H20zM22,28H23V29H22zM23,28H24V29H23zM25,28H26V29H25zM26,28H27V29H26zM28,28H29V29H28zM30,28H31V29H30zM38,28H39V29H38zM40,28H41V29H40zM42,28H43V29H42zM44,28H45V29H44zM46,28H47V29H46zM48,28H49V29H48zM49,28H50V29H49zM4,29H5V30H4zM5,29H6V30H5zM6,29H7V30H6zM7,29H8V30H7zM8,29H9V30H8zM12,29H13V30H12zM14,29H15V30H14zM19,29H20V30H19zM20,29H21V30H20zM21,29H22V30H21zM22,29H23V30H22zM26,29H27V30H26zM30,29H31V30H30zM32,29H33V30H32zM33,29H34V30H33zM34,29H35V30H34zM39,29H40V30H39zM41,29H42V30H41zM43,29H44V30H43zM44,29H45V30H44zM48,29H49V30H48zM50,29H51V30H50zM51,29H52V30H51zM52,29H53V30H52zM8,30H9V31H8zM9,30H10V31H9zM10,30H11V31H10zM11,30H12V31H11zM12,30H13V31H12zM15,30H16V31H15zM16,30H17V31H16zM18,30H19V31H18zM21,30H22V31H21zM23,30H24V31H23zM26,30H27V31H26zM27,30H28V31H27zM28,30H29V31H28zM29,30H30V31H29zM30,30H31V31H30zM31,30H32V31H31zM33,30H34V31H33zM34,30H35V31H34zM36,30H37V31H36zM37,30H38V31H37zM38,30H39V31H38zM40,30H41V31H40zM41,30H42V31H41zM44,30H45V31H44zM45,30H46V31H45zM46,30H47V31H46zM47,30H48V31H47zM48,30H49V31H48zM49,30H50V31H49zM51,30H52V31H51zM52,30H53V31H52zM4,31H5V32H4zM6,31H7V32H6zM8,31H9V32H8zM11,31H12V32H11zM13,31H14V32H13zM15,31H16V32H15zM16,31H17V32H16zM18,31H19V32H18zM19,31H20V32H19zM26,31H27V32H26zM27,31H28V32H27zM29,31H30V32H29zM32,31H33V32H32zM33,31H34V32H33zM35,31H36V32H35zM36,31H37V32H36zM40,31H41V32H40zM41,31H42V32H41zM42,31H43V32H42zM43,31H44V32H43zM45,31H46V32H45zM46,31H47V32H46zM47,31H48V32H47zM4,32H5V33H4zM6,32H7V33H6zM8,32H9V33H8zM10,32H11V33H10zM13,32H14V33H13zM15,32H16V33H15zM23,32H24V33H23zM24,32H25V33H24zM25,32H26V33H25zM28,32H29V33H28zM29,32H30V33H29zM30,32H31V33H30zM31,32H32V33H31zM32,32H33V33H32zM33,32H34V33H33zM35,32H36V33H35zM36,32H37V33H36zM37,32H38V33H37zM39,32H40V33H39zM40,32H41V33H40zM41,32H42V33H41zM44,32H45V33H44zM45,32H46V33H45zM46,32H47V33H46zM48,32H49V33H48zM50,32H51V33H50zM52,32H53V33H52zM6,33H7V34H6zM7,33H8V34H7zM12,33H13V34H12zM17,33H18V34H17zM18,33H19V34H18zM23,33H24V34H23zM24,33H25V34H24zM29,33H30V34H29zM31,33H32V34H31zM32,33H33V34H32zM35,33H36V34H35zM42,33H43V34H42zM43,33H44V34H43zM45,33H46V34H45zM46,33H47V34H46zM48,33H49V34H48zM50,33H51V34H50zM52,33H53V34H52zM5,34H6V35H5zM8,34H9V35H8zM10,34H11V35H10zM11,34H12V35H11zM12,34H13V35H12zM15,34H16V35H15zM16,34H17V35H16zM17,34H18V35H17zM18,34H19V35H18zM20,34H21V35H20zM23,34H24V35H23zM26,34H27V35H26zM28,34H29V35H28zM30,34H31V35H30zM36,34H37V35H36zM39,34H40V35H39zM40,34H41V35H40zM41,34H42V35H41zM43,34H44V35H43zM45,34H46V35H45zM46,34H47V35H46zM47,34H48V35H47zM49,34H50V35H49zM52,34H53V35H52zM4,35H5V36H4zM7,35H8V36H7zM12,35H13V36H12zM13,35H14V36H13zM14,35H15V36H14zM15,35H16V36H15zM16,35H17V36H16zM19,35H20V36H19zM22,35H23V36H22zM23,35H24V36H23zM24,35H25V36H24zM25,35H26V36H25zM30,35H31V36H30zM33,35H34V36H33zM34,35H35V36H34zM37,35H38V36H37zM38,35H39V36H38zM39,35H40V36H39zM41,35H42V36H41zM43,35H44V36H43zM45,35H46V36H45zM46,35H47V36H46zM47,35H48V36H47zM48,35H49V36H48zM52,35H53V36H52zM4,36H5V37H4zM5,36H6V37H5zM6,36H7V37H6zM10,36H11V37H10zM11,36H12V37H11zM15,36H16V37H15zM17,36H18V37H17zM18,36H19V37H18zM20,36H21V37H20zM21,36H22V37H21zM22,36H23V37H22zM24,36H25V37H24zM28,36H29V37H28zM29,36H30V37H29zM33,36H34V37H33zM37,36H38V37H37zM39,36H40V37H39zM44,36H45V37H44zM45,36H46V37H45zM52,36H53V37H52zM4,37H5V38H4zM6,37H7V38H6zM8,37H9V38H8zM9,37H10V38H9zM12,37H13V38H12zM14,37H15V38H14zM15,37H16V38H15zM16,37H17V38H16zM18,37H19V38H18zM20,37H21V38H20zM22,37H23V38H22zM24,37H25V38H24zM25,37H26V38H25zM28,37H29V38H28zM29,37H30V38H29zM30,37H31V38H30zM32,37H33V38H32zM33,37H34V38H33zM34,37H35V38H34zM36,37H37V38H36zM37,37H38V38H37zM38,37H39V38H38zM40,37H41V38H40zM42,37H43V38H42zM43,37H44V38H43zM51,37H52V38H51zM52,37H53V38H52zM6,38H7V39H6zM8,38H9V39H8zM9,38H10V39H9zM10,38H11V39H10zM14,38H15V39H14zM15,38H16V39H15zM18,38H19V39H18zM19,38H20V39H19zM21,38H22V39H21zM23,38H24V39H23zM24,38H25V39H24zM25,38H26V39H25zM27,38H28V39H27zM29,38H30V39H29zM30,38H31V39H30zM33,38H34V39H33zM34,38H35V39H34zM37,38H38V39H37zM38,38H39V39H38zM45,38H46V39H45zM46,38H47V39H46zM49,38H50V39H49zM50,38H51V39H50zM51,38H52V39H51zM5,39H6V40H5zM6,39H7V40H6zM7,39H8V40H7zM8,39H9V40H8zM11,39H12V40H11zM12,39H13V40H12zM13,39H14V40H13zM16,39H17V40H16zM17,39H18V40H17zM19,39H20V40H19zM20,39H21V40H20zM24,39H25V40H24zM27,39H28V40H27zM31,39H32V40H31zM32,39H33V40H32zM33,39H34V40H33zM35,39H36V40H35zM36,39H37V40H36zM38,39H39V40H38zM40,39H41V40H40zM41,39H42V40H41zM42,39H43V40H42zM43,39H44V40H43zM45,39H46V40H45zM46,39H47V40H46zM49,39H50V40H49zM4,40H5V41H4zM5,40H6V41H5zM6,40H7V41H6zM7,40H8V41H7zM8,40H9V41H8zM9,40H10V41H9zM10,40H11V41H10zM13,40H14V41H13zM14,40H15V41H14zM16,40H17V41H16zM17,40H18V41H17zM22,40H23V41H22zM25,40H26V41H25zM28,40H29V41H28zM30,40H31V41H30zM31,40H32V41H31zM34,40H35V41H34zM35,40H36V41H35zM38,40H39V41H38zM39,40H40V41H39zM40,40H41V41H40zM43,40H44V41H43zM47,40H48V41H47zM49,40H50V41H49zM52,40H53V41H52zM4,41H5V42H4zM7,41H8V42H7zM8,41H9V42H8zM11,41H12V42H11zM14,41H15V42H14zM18,41H19V42H18zM23,41H24V42H23zM27,41H28V42H27zM31,41H32V42H31zM32,41H33V42H32zM33,41H34V42H33zM36,41H37V42H36zM37,41H38V42H37zM39,41H40V42H39zM41,41H42V42H41zM44,41H45V42H44zM45,41H46V42H45zM46,41H47V42H46zM49,41H50V42H49zM50,41H51V42H50zM52,41H53V42H52zM5,42H6V43H5zM9,42H10V43H9zM10,42H11V43H10zM11,42H12V43H11zM12,42H13V43H12zM14,42H15V43H14zM17,42H18V43H17zM19,42H20V43H19zM21,42H22V43H21zM22,42H23V43H22zM24,42H25V43H24zM29,42H30V43H29zM30,42H31V43H30zM32,42H33V43H32zM33,42H34V43H33zM36,42H37V43H36zM37,42H38V43H37zM38,42H39V43H38zM39,42H40V43H39zM44,42H45V43H44zM46,42H47V43H46zM47,42H48V43H47zM49,42H50V43H49zM51,42H52V43H51zM5,43H6V44H5zM6,43H7V44H6zM7,43H8V44H7zM11,43H12V44H11zM12,43H13V44H12zM13,43H14V44H13zM14,43H15V44H14zM15,43H16V44H15zM17,43H18V44H17zM18,43H19V44H18zM21,43H22V44H21zM23,43H24V44H23zM24,43H25V44H24zM28,43H29V44H28zM29,43H30V44H29zM30,43H31V44H30zM33,43H34V44H33zM35,43H36V44H35zM37,43H38V44H37zM40,43H41V44H40zM43,43H44V44H43zM46,43H47V44H46zM49,43H50V44H49zM52,43H53V44H52zM4,44H5V45H4zM5,44H6V45H5zM6,44H7V45H6zM10,44H11V45H10zM11,44H12V45H11zM12,44H13V45H12zM13,44H14V45H13zM15,44H16V45H15zM16,44H17V45H16zM17,44H18V45H17zM18,44H19V45H18zM21,44H22V45H21zM25,44H26V45H25zM26,44H27V45H26zM27,44H28V45H27zM28,44H29V45H28zM29,44H30V45H29zM30,44H31V45H30zM31,44H32V45H31zM34,44H35V45H34zM35,44H36V45H35zM36,44H37V45H36zM37,44H38V45H37zM38,44H39V45H38zM40,44H41V45H40zM43,44H44V45H43zM44,44H45V45H44zM45,44H46V45H45zM46,44H47V45H46zM47,44H48V45H47zM48,44H49V45H48zM49,44H50V45H49zM12,45H13V46H12zM13,45H14V46H13zM14,45H15V46H14zM16,45H17V46H16zM19,45H20V46H19zM21,45H22V46H21zM22,45H23V46H22zM23,45H24V46H23zM25,45H26V46H25zM26,45H27V46H26zM30,45H31V46H30zM34,45H35V46H34zM35,45H36V46H35zM37,45H38V46H37zM38,45H39V46H38zM40,45H41V46H40zM41,45H42V46H41zM44,45H45V46H44zM48,45H49V46H48zM50,45H51V46H50zM51,45H52V46H51zM52,45H53V46H52zM4,46H5V47H4zM5,46H6V47H5zM6,46H7V47H6zM7,46H8V47H7zM8,46H9V47H8zM9,46H10V47H9zM10,46H11V47H10zM12,46H13V47H12zM13,46H14V47H13zM14,46H15V47H14zM15,46H16V47H15zM16,46H17V47H16zM19,46H20V47H19zM20,46H21V47H20zM25,46H26V47H25zM26,46H27V47H26zM28,46H29V47H28zM30,46H31V47H30zM33,46H34V47H33zM35,46H36V47H35zM37,46H38V47H37zM38,46H39V47H38zM39,46H40V47H39zM40,46H41V47H40zM44,46H45V47H44zM46,46H47V47H46zM48,46H49V47H48zM50,46H51V47H50zM51,46H52V47H51zM52,46H53V47H52zM4,47H5V48H4zM10,47H11V48H10zM14,47H15V48H14zM16,47H17V48H16zM17,47H18V48H17zM18,47H19V48H18zM19,47H20V48H19zM20,47H21V48H20zM21,47H22V48H21zM22,47H23V48H22zM23,47H24V48H23zM24,47H25V48H24zM26,47H27V48H26zM30,47H31V48H30zM32,47H33V48H32zM36,47H37V48H36zM39,47H40V48H39zM40,47H41V48H40zM42,47H43V48H42zM44,47H45V48H44zM48,47H49V48H48zM50,47H51V48H50zM51,47H52V48H51zM4,48H5V49H4zM6,48H7V49H6zM7,48H8V49H7zM8,48H9V49H8zM10,48H11V49H10zM14,48H15V49H14zM16,48H17V49H16zM19,48H20V49H19zM21,48H22V49H21zM22,48H23V49H22zM24,48H25V49H24zM26,48H27V49H26zM27,48H28V49H27zM28,48H29V49H28zM29,48H30V49H29zM30,48H31V49H30zM32,48H33V49H32zM35,48H36V49H35zM36,48H37V49H36zM37,48H38V49H37zM40,48H41V49H40zM41,48H42V49H41zM42,48H43V49H42zM44,48H45V49H44zM45,48H46V49H45zM46,48H47V49H46zM47,48H48V49H47zM48,48H49V49H48zM50,48H51V49H50zM52,48H53V49H52zM4,49H5V50H4zM6,49H7V50H6zM7,49H8V50H7zM8,49H9V50H8zM10,49H11V50H10zM13,49H14V50H13zM15,49H16V50H15zM17,49H18V50H17zM18,49H19V50H18zM19,49H20V50H19zM20,49H21V50H20zM27,49H28V50H27zM28,49H29V50H28zM29,49H30V50H29zM30,49H31V50H30zM31,49H32V50H31zM34,49H35V50H34zM35,49H36V50H35zM38,49H39V50H38zM42,49H43V50H42zM43,49H44V50H43zM44,49H45V50H44zM46,49H47V50H46zM47,49H48V50H47zM48,49H49V50H48zM50,49H51V50H50zM51,49H52V50H51zM52,49H53V50H52zM4,50H5V51H4zM6,50H7V51H6zM7,50H8V51H7zM8,50H9V51H8zM10,50H11V51H10zM12,50H13V51H12zM16,50H17V51H16zM18,50H19V51H18zM20,50H21V51H20zM24,50H25V51H24zM25,50H26V51H25zM26,50H27V51H26zM28,50H29V51H28zM29,50H30V51H29zM36,50H37V51H36zM40,50H41V51H40zM41,50H42V51H41zM43,50H44V51H43zM44,50H45V51H44zM46,50H47V51H46zM48,50H49V51H48zM50,50H51V51H50zM51,50H52V51H51zM52,50H53V51H52zM4,51H5V52H4zM10,51H11V52H10zM15,51H16V52H15zM16,51H17V52H16zM17,51H18V52H17zM20,51H21V52H20zM22,51H23V52H22zM27,51H28V52H27zM29,51H30V52H29zM30,51H31V52H30zM31,51H32V52H31zM35,51H36V52H35zM39,51H40V52H39zM46,51H47V52H46zM47,51H48V52H47zM50,51H51V52H50zM4,52H5V53H4zM5,52H6V53H5zM6,52H7V53H6zM7,52H8V53H7zM8,52H9V53H8zM9,52H10V53H9zM10,52H11V53H10zM12,52H13V53H12zM15,52H16V53H15zM17,52H18V53H17zM18,52H19V53H18zM19,52H20V53H19zM21,52H22V53H21zM24,52H25V53H24zM25,52H26V53H25zM27,52H28V53H27zM28,52H29V53H28zM29,52H30V53H29zM30,52H31V53H30zM31,52H32V53H31zM32,52H33V53H32zM34,52H35V53H34zM35,52H36V53H35zM36,52H37V53H36zM38,52H39V53H38zM39,52H40V53H39zM40,52H41V53H40zM41,52H42V53H41zM43,52H44V53H43zM47,52H48V53H47zM48,52H49V53H48zM50,52H51V53H50zM52,52H53V53H52z" id="qr-path" fill="#000000" fill-opacity="1" fill-rule="nonzero" stroke="none"/></svg>